<svg xmlns="http://www.w3.org/2000/svg" width="900" height="470" font-family="Helvetica, Arial, sans-serif">
<rect width="100%" height="100%" fill="white"/>
<line x1="60" y1="20" x2="60" y2="150" stroke="black" stroke-width="2"/>
<line x1="60" y1="140" x2="875" y2="140" stroke="black" stroke-width="2"/>
<text x="15" y="30" font-size="16">Amplitud</text>
<path d="M 60 140 L 60 140 L 160 140 L 160 40 L 260 40 L 260 40 L 360 40 L 360 40 L 460 40 L 460 140 L 560 140 L 560 40 L 660 40 L 660 40 L 760 40 L 760 140 L 860 140" fill="none" stroke="black" stroke-width="3"/>
<text x="105.0" y="18" font-size="18">0</text>
<text x="205.0" y="18" font-size="18">1</text>
<text x="305.0" y="18" font-size="18">1</text>
<text x="405.0" y="18" font-size="18">1</text>
<text x="505.0" y="18" font-size="18">0</text>
<text x="605.0" y="18" font-size="18">1</text>
<text x="705.0" y="18" font-size="18">1</text>
<text x="805.0" y="18" font-size="18">0</text>
<line x1="60" y1="15" x2="60" y2="145" stroke="black" stroke-width="1" stroke-dasharray="3,3"/>
<line x1="160" y1="15" x2="160" y2="145" stroke="black" stroke-width="1" stroke-dasharray="3,3"/>
<line x1="260" y1="15" x2="260" y2="145" stroke="black" stroke-width="1" stroke-dasharray="3,3"/>
<line x1="360" y1="15" x2="360" y2="145" stroke="black" stroke-width="1" stroke-dasharray="3,3"/>
<line x1="460" y1="15" x2="460" y2="145" stroke="black" stroke-width="1" stroke-dasharray="3,3"/>
<line x1="560" y1="15" x2="560" y2="145" stroke="black" stroke-width="1" stroke-dasharray="3,3"/>
<line x1="660" y1="15" x2="660" y2="145" stroke="black" stroke-width="1" stroke-dasharray="3,3"/>
<line x1="760" y1="15" x2="760" y2="145" stroke="black" stroke-width="1" stroke-dasharray="3,3"/>
<line x1="860" y1="15" x2="860" y2="145" stroke="black" stroke-width="1" stroke-dasharray="3,3"/>
<line x1="60" y1="160" x2="60" y2="440" stroke="black" stroke-width="2"/>
<line x1="60" y1="300.0" x2="875" y2="300.0" stroke="black" stroke-width="1" stroke-dasharray="4,3"/>
<text x="15" y="170" font-size="16">Amplitud</text>
<path d="M 60.00 300.00 L 61.67 311.44 L 63.33 322.37 L 65.00 332.33 L 66.67 340.87 L 68.33 347.63 L 70.00 352.31 L 71.67 354.70 L 73.33 354.70 L 75.00 352.31 L 76.67 347.63 L 78.33 340.87 L 80.00 332.33 L 81.67 322.37 L 83.33 311.44 L 85.00 300.00 L 86.67 288.56 L 88.33 277.63 L 90.00 267.67 L 91.67 259.13 L 93.33 252.37 L 95.00 247.69 L 96.67 245.30 L 98.33 245.30 L 100.00 247.69 L 101.67 252.37 L 103.33 259.13 L 105.00 267.67 L 106.67 277.63 L 108.33 288.56 L 110.00 300.00 L 111.67 311.44 L 113.33 322.37 L 115.00 332.33 L 116.67 340.87 L 118.33 347.63 L 120.00 352.31 L 121.67 354.70 L 123.33 354.70 L 125.00 352.31 L 126.67 347.63 L 128.33 340.87 L 130.00 332.33 L 131.67 322.37 L 133.33 311.44 L 135.00 300.00 L 136.67 288.56 L 138.33 277.63 L 140.00 267.67 L 141.67 259.13 L 143.33 252.37 L 145.00 247.69 L 146.67 245.30 L 148.33 245.30 L 150.00 247.69 L 151.67 252.37 L 153.33 259.13 L 155.00 267.67 L 156.67 277.63 L 158.33 288.56 L 160.00 300.00 L 161.67 288.56 L 163.33 277.63 L 165.00 267.67 L 166.67 259.13 L 168.33 252.37 L 170.00 247.69 L 171.67 245.30 L 173.33 245.30 L 175.00 247.69 L 176.67 252.37 L 178.33 259.13 L 180.00 267.67 L 181.67 277.63 L 183.33 288.56 L 185.00 300.00 L 186.67 311.44 L 188.33 322.37 L 190.00 332.33 L 191.67 340.87 L 193.33 347.63 L 195.00 352.31 L 196.67 354.70 L 198.33 354.70 L 200.00 352.31 L 201.67 347.63 L 203.33 340.87 L 205.00 332.33 L 206.67 322.37 L 208.33 311.44 L 210.00 300.00 L 211.67 288.56 L 213.33 277.63 L 215.00 267.67 L 216.67 259.13 L 218.33 252.37 L 220.00 247.69 L 221.67 245.30 L 223.33 245.30 L 225.00 247.69 L 226.67 252.37 L 228.33 259.13 L 230.00 267.67 L 231.67 277.63 L 233.33 288.56 L 235.00 300.00 L 236.67 311.44 L 238.33 322.37 L 240.00 332.33 L 241.67 340.87 L 243.33 347.63 L 245.00 352.31 L 246.67 354.70 L 248.33 354.70 L 250.00 352.31 L 251.67 347.63 L 253.33 340.87 L 255.00 332.33 L 256.67 322.37 L 258.33 311.44 L 260.00 300.00 L 261.67 288.56 L 263.33 277.63 L 265.00 267.67 L 266.67 259.13 L 268.33 252.37 L 270.00 247.69 L 271.67 245.30 L 273.33 245.30 L 275.00 247.69 L 276.67 252.37 L 278.33 259.13 L 280.00 267.67 L 281.67 277.63 L 283.33 288.56 L 285.00 300.00 L 286.67 311.44 L 288.33 322.37 L 290.00 332.33 L 291.67 340.87 L 293.33 347.63 L 295.00 352.31 L 296.67 354.70 L 298.33 354.70 L 300.00 352.31 L 301.67 347.63 L 303.33 340.87 L 305.00 332.33 L 306.67 322.37 L 308.33 311.44 L 310.00 300.00 L 311.67 288.56 L 313.33 277.63 L 315.00 267.67 L 316.67 259.13 L 318.33 252.37 L 320.00 247.69 L 321.67 245.30 L 323.33 245.30 L 325.00 247.69 L 326.67 252.37 L 328.33 259.13 L 330.00 267.67 L 331.67 277.63 L 333.33 288.56 L 335.00 300.00 L 336.67 311.44 L 338.33 322.37 L 340.00 332.33 L 341.67 340.87 L 343.33 347.63 L 345.00 352.31 L 346.67 354.70 L 348.33 354.70 L 350.00 352.31 L 351.67 347.63 L 353.33 340.87 L 355.00 332.33 L 356.67 322.37 L 358.33 311.44 L 360.00 300.00 L 361.67 288.56 L 363.33 277.63 L 365.00 267.67 L 366.67 259.13 L 368.33 252.37 L 370.00 247.69 L 371.67 245.30 L 373.33 245.30 L 375.00 247.69 L 376.67 252.37 L 378.33 259.13 L 380.00 267.67 L 381.67 277.63 L 383.33 288.56 L 385.00 300.00 L 386.67 311.44 L 388.33 322.37 L 390.00 332.33 L 391.67 340.87 L 393.33 347.63 L 395.00 352.31 L 396.67 354.70 L 398.33 354.70 L 400.00 352.31 L 401.67 347.63 L 403.33 340.87 L 405.00 332.33 L 406.67 322.37 L 408.33 311.44 L 410.00 300.00 L 411.67 288.56 L 413.33 277.63 L 415.00 267.67 L 416.67 259.13 L 418.33 252.37 L 420.00 247.69 L 421.67 245.30 L 423.33 245.30 L 425.00 247.69 L 426.67 252.37 L 428.33 259.13 L 430.00 267.67 L 431.67 277.63 L 433.33 288.56 L 435.00 300.00 L 436.67 311.44 L 438.33 322.37 L 440.00 332.33 L 441.67 340.87 L 443.33 347.63 L 445.00 352.31 L 446.67 354.70 L 448.33 354.70 L 450.00 352.31 L 451.67 347.63 L 453.33 340.87 L 455.00 332.33 L 456.67 322.37 L 458.33 311.44 L 460.00 300.00 L 461.67 311.44 L 463.33 322.37 L 465.00 332.33 L 466.67 340.87 L 468.33 347.63 L 470.00 352.31 L 471.67 354.70 L 473.33 354.70 L 475.00 352.31 L 476.67 347.63 L 478.33 340.87 L 480.00 332.33 L 481.67 322.37 L 483.33 311.44 L 485.00 300.00 L 486.67 288.56 L 488.33 277.63 L 490.00 267.67 L 491.67 259.13 L 493.33 252.37 L 495.00 247.69 L 496.67 245.30 L 498.33 245.30 L 500.00 247.69 L 501.67 252.37 L 503.33 259.13 L 505.00 267.67 L 506.67 277.63 L 508.33 288.56 L 510.00 300.00 L 511.67 311.44 L 513.33 322.37 L 515.00 332.33 L 516.67 340.87 L 518.33 347.63 L 520.00 352.31 L 521.67 354.70 L 523.33 354.70 L 525.00 352.31 L 526.67 347.63 L 528.33 340.87 L 530.00 332.33 L 531.67 322.37 L 533.33 311.44 L 535.00 300.00 L 536.67 288.56 L 538.33 277.63 L 540.00 267.67 L 541.67 259.13 L 543.33 252.37 L 545.00 247.69 L 546.67 245.30 L 548.33 245.30 L 550.00 247.69 L 551.67 252.37 L 553.33 259.13 L 555.00 267.67 L 556.67 277.63 L 558.33 288.56 L 560.00 300.00 L 561.67 288.56 L 563.33 277.63 L 565.00 267.67 L 566.67 259.13 L 568.33 252.37 L 570.00 247.69 L 571.67 245.30 L 573.33 245.30 L 575.00 247.69 L 576.67 252.37 L 578.33 259.13 L 580.00 267.67 L 581.67 277.63 L 583.33 288.56 L 585.00 300.00 L 586.67 311.44 L 588.33 322.37 L 590.00 332.33 L 591.67 340.87 L 593.33 347.63 L 595.00 352.31 L 596.67 354.70 L 598.33 354.70 L 600.00 352.31 L 601.67 347.63 L 603.33 340.87 L 605.00 332.33 L 606.67 322.37 L 608.33 311.44 L 610.00 300.00 L 611.67 288.56 L 613.33 277.63 L 615.00 267.67 L 616.67 259.13 L 618.33 252.37 L 620.00 247.69 L 621.67 245.30 L 623.33 245.30 L 625.00 247.69 L 626.67 252.37 L 628.33 259.13 L 630.00 267.67 L 631.67 277.63 L 633.33 288.56 L 635.00 300.00 L 636.67 311.44 L 638.33 322.37 L 640.00 332.33 L 641.67 340.87 L 643.33 347.63 L 645.00 352.31 L 646.67 354.70 L 648.33 354.70 L 650.00 352.31 L 651.67 347.63 L 653.33 340.87 L 655.00 332.33 L 656.67 322.37 L 658.33 311.44 L 660.00 300.00 L 661.67 288.56 L 663.33 277.63 L 665.00 267.67 L 666.67 259.13 L 668.33 252.37 L 670.00 247.69 L 671.67 245.30 L 673.33 245.30 L 675.00 247.69 L 676.67 252.37 L 678.33 259.13 L 680.00 267.67 L 681.67 277.63 L 683.33 288.56 L 685.00 300.00 L 686.67 311.44 L 688.33 322.37 L 690.00 332.33 L 691.67 340.87 L 693.33 347.63 L 695.00 352.31 L 696.67 354.70 L 698.33 354.70 L 700.00 352.31 L 701.67 347.63 L 703.33 340.87 L 705.00 332.33 L 706.67 322.37 L 708.33 311.44 L 710.00 300.00 L 711.67 288.56 L 713.33 277.63 L 715.00 267.67 L 716.67 259.13 L 718.33 252.37 L 720.00 247.69 L 721.67 245.30 L 723.33 245.30 L 725.00 247.69 L 726.67 252.37 L 728.33 259.13 L 730.00 267.67 L 731.67 277.63 L 733.33 288.56 L 735.00 300.00 L 736.67 311.44 L 738.33 322.37 L 740.00 332.33 L 741.67 340.87 L 743.33 347.63 L 745.00 352.31 L 746.67 354.70 L 748.33 354.70 L 750.00 352.31 L 751.67 347.63 L 753.33 340.87 L 755.00 332.33 L 756.67 322.37 L 758.33 311.44 L 760.00 300.00 L 761.67 311.44 L 763.33 322.37 L 765.00 332.33 L 766.67 340.87 L 768.33 347.63 L 770.00 352.31 L 771.67 354.70 L 773.33 354.70 L 775.00 352.31 L 776.67 347.63 L 778.33 340.87 L 780.00 332.33 L 781.67 322.37 L 783.33 311.44 L 785.00 300.00 L 786.67 288.56 L 788.33 277.63 L 790.00 267.67 L 791.67 259.13 L 793.33 252.37 L 795.00 247.69 L 796.67 245.30 L 798.33 245.30 L 800.00 247.69 L 801.67 252.37 L 803.33 259.13 L 805.00 267.67 L 806.67 277.63 L 808.33 288.56 L 810.00 300.00 L 811.67 311.44 L 813.33 322.37 L 815.00 332.33 L 816.67 340.87 L 818.33 347.63 L 820.00 352.31 L 821.67 354.70 L 823.33 354.70 L 825.00 352.31 L 826.67 347.63 L 828.33 340.87 L 830.00 332.33 L 831.67 322.37 L 833.33 311.44 L 835.00 300.00 L 836.67 288.56 L 838.33 277.63 L 840.00 267.67 L 841.67 259.13 L 843.33 252.37 L 845.00 247.69 L 846.67 245.30 L 848.33 245.30 L 850.00 247.69 L 851.67 252.37 L 853.33 259.13 L 855.00 267.67 L 856.67 277.63 L 858.33 288.56 L 860.00 300.00" fill="none" stroke="black" stroke-width="3"/>
<line x1="60" y1="155" x2="60" y2="435" stroke="black" stroke-width="1" stroke-dasharray="3,3"/>
<line x1="160" y1="155" x2="160" y2="435" stroke="black" stroke-width="1" stroke-dasharray="3,3"/>
<line x1="260" y1="155" x2="260" y2="435" stroke="black" stroke-width="1" stroke-dasharray="3,3"/>
<line x1="360" y1="155" x2="360" y2="435" stroke="black" stroke-width="1" stroke-dasharray="3,3"/>
<line x1="460" y1="155" x2="460" y2="435" stroke="black" stroke-width="1" stroke-dasharray="3,3"/>
<line x1="560" y1="155" x2="560" y2="435" stroke="black" stroke-width="1" stroke-dasharray="3,3"/>
<line x1="660" y1="155" x2="660" y2="435" stroke="black" stroke-width="1" stroke-dasharray="3,3"/>
<line x1="760" y1="155" x2="760" y2="435" stroke="black" stroke-width="1" stroke-dasharray="3,3"/>
<line x1="860" y1="155" x2="860" y2="435" stroke="black" stroke-width="1" stroke-dasharray="3,3"/>
<text x="840" y="170" font-size="16">Tiempo</text>
<line x1="865" y1="140" x2="885" y2="140" stroke="black" stroke-width="2" marker-end="url(#arrow)"/>
<text x="840" y="465" font-size="16">Tiempo</text>
</svg>